<mxfile host="app.diagrams.net" modified="2022-06-22T09:28:57.930Z" agent="5.0 (X11)" etag="BC5oQj2zwGiEvNsg_brH" version="20.0.1" type="github">
  <diagram id="OrkH0M7Y0Ii_tYwxaAFD" name="Page-1">
    <mxGraphModel dx="2008" dy="975" grid="1" gridSize="10" guides="1" tooltips="1" connect="1" arrows="1" fold="1" page="1" pageScale="1" pageWidth="1700" pageHeight="1100" math="0" shadow="0">
      <root>
        <mxCell id="0" />
        <mxCell id="1" parent="0" />
        <mxCell id="kDojHUcIjCg9UTh-v8M5-1" value="&lt;div&gt;Group&lt;/div&gt;" style="rounded=0;whiteSpace=wrap;html=1;" vertex="1" parent="1">
          <mxGeometry x="280" y="470" width="120" height="60" as="geometry" />
        </mxCell>
        <mxCell id="kDojHUcIjCg9UTh-v8M5-2" value="User" style="rounded=0;whiteSpace=wrap;html=1;" vertex="1" parent="1">
          <mxGeometry x="80" y="470" width="120" height="60" as="geometry" />
        </mxCell>
        <mxCell id="kDojHUcIjCg9UTh-v8M5-3" value="&lt;div&gt;Role&lt;/div&gt;" style="rounded=0;whiteSpace=wrap;html=1;" vertex="1" parent="1">
          <mxGeometry x="730" y="470" width="120" height="60" as="geometry" />
        </mxCell>
        <mxCell id="kDojHUcIjCg9UTh-v8M5-4" value="Resource" style="rounded=0;whiteSpace=wrap;html=1;" vertex="1" parent="1">
          <mxGeometry x="930" y="550" width="120" height="60" as="geometry" />
        </mxCell>
        <mxCell id="kDojHUcIjCg9UTh-v8M5-5" value="Action" style="rounded=0;whiteSpace=wrap;html=1;" vertex="1" parent="1">
          <mxGeometry x="1070" y="550" width="120" height="60" as="geometry" />
        </mxCell>
        <mxCell id="kDojHUcIjCg9UTh-v8M5-6" value="Statement" style="rounded=0;whiteSpace=wrap;html=1;" vertex="1" parent="1">
          <mxGeometry x="996" y="680" width="120" height="60" as="geometry" />
        </mxCell>
        <mxCell id="kDojHUcIjCg9UTh-v8M5-7" value="Project" style="rounded=0;whiteSpace=wrap;html=1;" vertex="1" parent="1">
          <mxGeometry x="190" y="320" width="120" height="60" as="geometry" />
        </mxCell>
        <mxCell id="kDojHUcIjCg9UTh-v8M5-8" value="Team" style="rounded=0;whiteSpace=wrap;html=1;" vertex="1" parent="1">
          <mxGeometry x="390" y="320" width="120" height="60" as="geometry" />
        </mxCell>
        <mxCell id="kDojHUcIjCg9UTh-v8M5-14" value="" style="fontSize=12;html=1;endArrow=ERmandOne;startArrow=ERmandOne;rounded=0;" edge="1" parent="1" source="kDojHUcIjCg9UTh-v8M5-1" target="kDojHUcIjCg9UTh-v8M5-8">
          <mxGeometry width="100" height="100" relative="1" as="geometry">
            <mxPoint x="270" y="510" as="sourcePoint" />
            <mxPoint x="370" y="410" as="targetPoint" />
          </mxGeometry>
        </mxCell>
        <mxCell id="kDojHUcIjCg9UTh-v8M5-15" value="" style="fontSize=12;html=1;endArrow=ERmandOne;startArrow=ERmandOne;rounded=0;" edge="1" parent="1" source="kDojHUcIjCg9UTh-v8M5-1" target="kDojHUcIjCg9UTh-v8M5-7">
          <mxGeometry width="100" height="100" relative="1" as="geometry">
            <mxPoint x="170" y="570" as="sourcePoint" />
            <mxPoint x="270" y="470" as="targetPoint" />
          </mxGeometry>
        </mxCell>
        <mxCell id="kDojHUcIjCg9UTh-v8M5-43" value="" style="fontSize=12;html=1;endArrow=ERzeroToMany;startArrow=ERmandOne;rounded=0;" edge="1" parent="1" source="kDojHUcIjCg9UTh-v8M5-1" target="kDojHUcIjCg9UTh-v8M5-2">
          <mxGeometry width="100" height="100" relative="1" as="geometry">
            <mxPoint x="350" y="630" as="sourcePoint" />
            <mxPoint x="450" y="530" as="targetPoint" />
          </mxGeometry>
        </mxCell>
        <mxCell id="kDojHUcIjCg9UTh-v8M5-44" value="Group_Role" style="rounded=0;whiteSpace=wrap;html=1;" vertex="1" parent="1">
          <mxGeometry x="480" y="690" width="120" height="60" as="geometry" />
        </mxCell>
        <mxCell id="kDojHUcIjCg9UTh-v8M5-45" value="" style="fontSize=12;html=1;endArrow=ERzeroToMany;startArrow=ERmandOne;rounded=0;" edge="1" parent="1" source="kDojHUcIjCg9UTh-v8M5-1" target="kDojHUcIjCg9UTh-v8M5-44">
          <mxGeometry width="100" height="100" relative="1" as="geometry">
            <mxPoint x="290" y="510" as="sourcePoint" />
            <mxPoint x="210" y="510" as="targetPoint" />
          </mxGeometry>
        </mxCell>
        <mxCell id="kDojHUcIjCg9UTh-v8M5-46" value="" style="fontSize=12;html=1;endArrow=ERzeroToMany;startArrow=ERmandOne;rounded=0;" edge="1" parent="1" source="kDojHUcIjCg9UTh-v8M5-3" target="kDojHUcIjCg9UTh-v8M5-44">
          <mxGeometry width="100" height="100" relative="1" as="geometry">
            <mxPoint x="377.272727272727" y="540" as="sourcePoint" />
            <mxPoint x="522.727272727273" y="700" as="targetPoint" />
          </mxGeometry>
        </mxCell>
        <mxCell id="kDojHUcIjCg9UTh-v8M5-47" value="" style="fontSize=12;html=1;endArrow=ERzeroToMany;startArrow=ERmandOne;rounded=0;" edge="1" parent="1" source="kDojHUcIjCg9UTh-v8M5-3" target="kDojHUcIjCg9UTh-v8M5-6">
          <mxGeometry width="100" height="100" relative="1" as="geometry">
            <mxPoint x="765.909090909091" y="540" as="sourcePoint" />
            <mxPoint x="584.0909090909095" y="700" as="targetPoint" />
          </mxGeometry>
        </mxCell>
        <mxCell id="kDojHUcIjCg9UTh-v8M5-48" value="" style="fontSize=12;html=1;endArrow=ERoneToMany;startArrow=ERmandOne;rounded=0;" edge="1" parent="1" source="kDojHUcIjCg9UTh-v8M5-4" target="kDojHUcIjCg9UTh-v8M5-6">
          <mxGeometry width="100" height="100" relative="1" as="geometry">
            <mxPoint x="850" y="750" as="sourcePoint" />
            <mxPoint x="1070" y="710" as="targetPoint" />
          </mxGeometry>
        </mxCell>
        <mxCell id="kDojHUcIjCg9UTh-v8M5-49" value="" style="fontSize=12;html=1;endArrow=ERoneToMany;startArrow=ERmandOne;rounded=0;" edge="1" parent="1" source="kDojHUcIjCg9UTh-v8M5-5" target="kDojHUcIjCg9UTh-v8M5-6">
          <mxGeometry width="100" height="100" relative="1" as="geometry">
            <mxPoint x="1011.5384615384614" y="620" as="sourcePoint" />
            <mxPoint x="1038.4615384615386" y="690" as="targetPoint" />
          </mxGeometry>
        </mxCell>
      </root>
    </mxGraphModel>
  </diagram>
</mxfile>
